<svg width="210" height="32" viewBox="0 0 210 32" fill="none" xmlns="http://www.w3.org/2000/svg">
<g clip-path="url(#clip0)">
<g clip-path="url(#clip1)">
<path fill-rule="evenodd" clip-rule="evenodd" d="M7.46296 16.839C5.61796 16.3503 4.02463 15.9282 4.02463 14.2774C4.02463 13.104 4.99421 12.219 6.27963 12.219C7.83671 12.219 8.30504 13.224 8.75838 14.1961C9.13338 15.0011 9.48754 15.7611 10.44 15.7611C11.238 15.7611 11.84 15.1957 11.84 14.4461C11.84 12.749 9.69671 10.994 6.11088 10.994C2.85629 10.994 0.494629 12.7178 0.494629 15.0924C0.494629 18.2615 3.02838 18.9174 5.26338 19.4961C7.09421 19.9699 8.67504 20.379 8.67504 22.0082C8.67504 23.2969 7.74796 24.0665 6.19504 24.0665C4.43588 24.0665 3.94504 23.0394 3.47088 22.0465C3.09005 21.2494 2.73005 20.4961 1.72546 20.4961C0.778379 20.4961 0.213379 21.0194 0.213379 21.8957C0.213379 23.5374 2.45088 25.2353 6.19504 25.2353C9.73379 25.2353 12.2055 23.5844 12.2055 21.2211C12.2055 18.0953 9.68588 17.4278 7.46296 16.839Z" fill="#A454D4"/>
<path fill-rule="evenodd" clip-rule="evenodd" d="M7.46296 16.839C5.61796 16.3503 4.02463 15.9282 4.02463 14.2774C4.02463 13.104 4.99421 12.219 6.27963 12.219C7.83671 12.219 8.30504 13.224 8.75838 14.1961C9.13338 15.0011 9.48754 15.7611 10.44 15.7611C11.238 15.7611 11.84 15.1957 11.84 14.4461C11.84 12.749 9.69671 10.994 6.11088 10.994C2.85629 10.994 0.494629 12.7178 0.494629 15.0924C0.494629 18.2615 3.02838 18.9174 5.26338 19.4961C7.09421 19.9699 8.67504 20.379 8.67504 22.0082C8.67504 23.2969 7.74796 24.0665 6.19504 24.0665C4.43588 24.0665 3.94504 23.0394 3.47088 22.0465C3.09005 21.2494 2.73005 20.4961 1.72546 20.4961C0.778379 20.4961 0.213379 21.0194 0.213379 21.8957C0.213379 23.5374 2.45088 25.2353 6.19504 25.2353C9.73379 25.2353 12.2055 23.5844 12.2055 21.2211C12.2055 18.0953 9.68588 17.4278 7.46296 16.839Z" fill="#A454D4"/>
<path fill-rule="evenodd" clip-rule="evenodd" d="M7.46296 16.839C5.61796 16.3503 4.02463 15.9282 4.02463 14.2774C4.02463 13.104 4.99421 12.219 6.27963 12.219C7.83671 12.219 8.30504 13.224 8.75838 14.1961C9.13338 15.0011 9.48754 15.7611 10.44 15.7611C11.238 15.7611 11.84 15.1957 11.84 14.4461C11.84 12.749 9.69671 10.994 6.11088 10.994C2.85629 10.994 0.494629 12.7178 0.494629 15.0924C0.494629 18.2615 3.02838 18.9174 5.26338 19.4961C7.09421 19.9699 8.67504 20.379 8.67504 22.0082C8.67504 23.2969 7.74796 24.0665 6.19504 24.0665C4.43588 24.0665 3.94504 23.0394 3.47088 22.0465C3.09005 21.2494 2.73005 20.4961 1.72546 20.4961C0.778379 20.4961 0.213379 21.0194 0.213379 21.8957C0.213379 23.5374 2.45088 25.2353 6.19504 25.2353C9.73379 25.2353 12.2055 23.5844 12.2055 21.2211C12.2055 18.0953 9.68588 17.4278 7.46296 16.839Z" fill="#A454D4"/>
<path fill-rule="evenodd" clip-rule="evenodd" d="M30.8493 10.9942C29.8455 10.9942 29.1968 11.6208 29.1968 12.5904C29.1968 13.5279 29.7355 14.0879 30.3059 14.6808C30.9355 15.335 31.5859 16.0117 31.5859 17.2854C31.5859 20.8392 29.2605 23.7008 27.3355 23.7008C26.8976 23.7008 26.5418 23.5646 26.2768 23.295C25.8572 22.8683 25.653 22.1142 25.6705 21.0529L25.7268 11.7754C25.7268 11.4971 25.6447 11.2879 25.4822 11.1537C25.2938 10.9979 25.0118 10.9542 24.643 11.0246L21.8905 11.5862C21.5301 11.6517 21.2968 11.8917 21.2968 12.1971V12.2812C21.2968 12.5596 21.5051 12.7492 21.7251 12.9496C22.0251 13.2233 22.3655 13.5333 22.3655 14.165V18.0442C22.3655 21.585 20.5614 23.7008 18.8172 23.7008C18.408 23.7008 18.0668 23.565 17.803 23.2962C17.3789 22.8646 17.1634 22.1087 17.1805 21.1092L17.2368 11.7754C17.2368 11.5267 17.1714 11.3492 17.0368 11.2325C16.8172 11.0421 16.4526 11.0658 16.1576 11.1079L13.1739 11.5867C12.8368 11.6537 12.6101 11.8992 12.6101 12.1971V12.2812C12.6101 12.5596 12.8184 12.7492 13.0384 12.9496C13.3384 13.2233 13.6784 13.5333 13.6784 14.165V19.8717C13.6784 24.7379 16.8201 25.2633 18.1705 25.2633C20.158 25.2633 21.7776 24.405 22.8676 22.7783C23.5043 24.3829 24.8434 25.2633 26.6605 25.2633C30.1501 25.2633 33.6826 21.9337 33.6826 15.5704C33.6826 12.7479 32.5972 10.9942 30.8493 10.9942Z" fill="#A454D4"/>
<path fill-rule="evenodd" clip-rule="evenodd" d="M30.8493 10.9942C29.8455 10.9942 29.1968 11.6208 29.1968 12.5904C29.1968 13.5279 29.7355 14.0879 30.3059 14.6808C30.9355 15.335 31.5859 16.0117 31.5859 17.2854C31.5859 20.8392 29.2605 23.7008 27.3355 23.7008C26.8976 23.7008 26.5418 23.5646 26.2768 23.295C25.8572 22.8683 25.653 22.1142 25.6705 21.0529L25.7268 11.7754C25.7268 11.4971 25.6447 11.2879 25.4822 11.1537C25.2938 10.9979 25.0118 10.9542 24.643 11.0246L21.8905 11.5862C21.5301 11.6517 21.2968 11.8917 21.2968 12.1971V12.2812C21.2968 12.5596 21.5051 12.7492 21.7251 12.9496C22.0251 13.2233 22.3655 13.5333 22.3655 14.165V18.0442C22.3655 21.585 20.5614 23.7008 18.8172 23.7008C18.408 23.7008 18.0668 23.565 17.803 23.2962C17.3789 22.8646 17.1634 22.1087 17.1805 21.1092L17.2368 11.7754C17.2368 11.5267 17.1714 11.3492 17.0368 11.2325C16.8172 11.0421 16.4526 11.0658 16.1576 11.1079L13.1739 11.5867C12.8368 11.6537 12.6101 11.8992 12.6101 12.1971V12.2812C12.6101 12.5596 12.8184 12.7492 13.0384 12.9496C13.3384 13.2233 13.6784 13.5333 13.6784 14.165V19.8717C13.6784 24.7379 16.8201 25.2633 18.1705 25.2633C20.158 25.2633 21.7776 24.405 22.8676 22.7783C23.5043 24.3829 24.8434 25.2633 26.6605 25.2633C30.1501 25.2633 33.6826 21.9337 33.6826 15.5704C33.6826 12.7479 32.5972 10.9942 30.8493 10.9942Z" fill="#A454D4"/>
<path fill-rule="evenodd" clip-rule="evenodd" d="M30.8493 10.9942C29.8455 10.9942 29.1968 11.6208 29.1968 12.5904C29.1968 13.5279 29.7355 14.0879 30.3059 14.6808C30.9355 15.335 31.5859 16.0117 31.5859 17.2854C31.5859 20.8392 29.2605 23.7008 27.3355 23.7008C26.8976 23.7008 26.5418 23.5646 26.2768 23.295C25.8572 22.8683 25.653 22.1142 25.6705 21.0529L25.7268 11.7754C25.7268 11.4971 25.6447 11.2879 25.4822 11.1537C25.2938 10.9979 25.0118 10.9542 24.643 11.0246L21.8905 11.5862C21.5301 11.6517 21.2968 11.8917 21.2968 12.1971V12.2812C21.2968 12.5596 21.5051 12.7492 21.7251 12.9496C22.0251 13.2233 22.3655 13.5333 22.3655 14.165V18.0442C22.3655 21.585 20.5614 23.7008 18.8172 23.7008C18.408 23.7008 18.0668 23.565 17.803 23.2962C17.3789 22.8646 17.1634 22.1087 17.1805 21.1092L17.2368 11.7754C17.2368 11.5267 17.1714 11.3492 17.0368 11.2325C16.8172 11.0421 16.4526 11.0658 16.1576 11.1079L13.1739 11.5867C12.8368 11.6537 12.6101 11.8992 12.6101 12.1971V12.2812C12.6101 12.5596 12.8184 12.7492 13.0384 12.9496C13.3384 13.2233 13.6784 13.5333 13.6784 14.165V19.8717C13.6784 24.7379 16.8201 25.2633 18.1705 25.2633C20.158 25.2633 21.7776 24.405 22.8676 22.7783C23.5043 24.3829 24.8434 25.2633 26.6605 25.2633C30.1501 25.2633 33.6826 21.9337 33.6826 15.5704C33.6826 12.7479 32.5972 10.9942 30.8493 10.9942Z" fill="#A454D4"/>
<path fill-rule="evenodd" clip-rule="evenodd" d="M46.826 20.4454C46.5639 20.34 46.2481 20.4354 46.0581 20.6775L46.0464 20.6954C45.4593 21.8692 43.8556 22.6892 42.1456 22.6892C40.1226 22.6892 38.5464 21.4525 37.8001 19.29C39.4935 19.44 40.8793 19.3887 42.0314 19.1325C44.9181 18.5117 46.6418 16.9383 46.6418 14.9237C46.6418 13.9167 46.2989 13.0667 45.6231 12.3971C44.6922 11.475 43.1785 10.9754 41.3618 10.9942C37.3585 11.0233 34.4526 13.9767 34.4526 18.0162C34.4526 22.3508 37.3089 25.2633 41.5593 25.2633C43.5693 25.2633 44.8635 24.4625 45.5951 23.7908C46.4193 23.0346 46.9993 22.0062 47.1464 21.0404L47.1472 21.035C47.1747 20.7579 47.0547 20.5375 46.826 20.4454ZM41.3697 17.6587C40.296 17.8733 38.5789 17.9075 37.461 17.8321C37.4131 17.4412 37.3885 17.0217 37.3885 16.5825C37.3885 14.1196 38.7389 12.3317 40.5997 12.3317C42.0256 12.3317 43.2531 13.5196 43.2801 14.9254C43.3097 16.9579 42.3301 17.4479 41.3697 17.6587Z" fill="#A454D4"/>
<path fill-rule="evenodd" clip-rule="evenodd" d="M46.826 20.4454C46.5639 20.34 46.2481 20.4354 46.0581 20.6775L46.0464 20.6954C45.4593 21.8692 43.8556 22.6892 42.1456 22.6892C40.1226 22.6892 38.5464 21.4525 37.8001 19.29C39.4935 19.44 40.8793 19.3887 42.0314 19.1325C44.9181 18.5117 46.6418 16.9383 46.6418 14.9237C46.6418 13.9167 46.2989 13.0667 45.6231 12.3971C44.6922 11.475 43.1785 10.9754 41.3618 10.9942C37.3585 11.0233 34.4526 13.9767 34.4526 18.0162C34.4526 22.3508 37.3089 25.2633 41.5593 25.2633C43.5693 25.2633 44.8635 24.4625 45.5951 23.7908C46.4193 23.0346 46.9993 22.0062 47.1464 21.0404L47.1472 21.035C47.1747 20.7579 47.0547 20.5375 46.826 20.4454ZM41.3697 17.6587C40.296 17.8733 38.5789 17.9075 37.461 17.8321C37.4131 17.4412 37.3885 17.0217 37.3885 16.5825C37.3885 14.1196 38.7389 12.3317 40.5997 12.3317C42.0256 12.3317 43.2531 13.5196 43.2801 14.9254C43.3097 16.9579 42.3301 17.4479 41.3697 17.6587Z" fill="#A454D4"/>
<path fill-rule="evenodd" clip-rule="evenodd" d="M46.826 20.4454C46.5639 20.34 46.2481 20.4354 46.0581 20.6775L46.0464 20.6954C45.4593 21.8692 43.8556 22.6892 42.1456 22.6892C40.1226 22.6892 38.5464 21.4525 37.8001 19.29C39.4935 19.44 40.8793 19.3887 42.0314 19.1325C44.9181 18.5117 46.6418 16.9383 46.6418 14.9237C46.6418 13.9167 46.2989 13.0667 45.6231 12.3971C44.6922 11.475 43.1785 10.9754 41.3618 10.9942C37.3585 11.0233 34.4526 13.9767 34.4526 18.0162C34.4526 22.3508 37.3089 25.2633 41.5593 25.2633C43.5693 25.2633 44.8635 24.4625 45.5951 23.7908C46.4193 23.0346 46.9993 22.0062 47.1464 21.0404L47.1472 21.035C47.1747 20.7579 47.0547 20.5375 46.826 20.4454ZM41.3697 17.6587C40.296 17.8733 38.5789 17.9075 37.461 17.8321C37.4131 17.4412 37.3885 17.0217 37.3885 16.5825C37.3885 14.1196 38.7389 12.3317 40.5997 12.3317C42.0256 12.3317 43.2531 13.5196 43.2801 14.9254C43.3097 16.9579 42.3301 17.4479 41.3697 17.6587Z" fill="#A454D4"/>
<path fill-rule="evenodd" clip-rule="evenodd" d="M52.8563 23.6334C52.5372 23.3767 52.2072 23.1113 52.2072 22.5426V4.67921C52.2072 4.43005 52.0997 4.21921 51.9122 4.10088C51.6888 3.96046 51.3801 3.97171 51.0413 4.1338L48.2018 5.53963C47.9501 5.66546 47.6647 5.80796 47.6647 6.14088V6.22546C47.6647 6.47088 47.8468 6.64546 48.0572 6.84755C48.3459 7.12421 48.7051 7.0588 48.7051 7.72713V22.5426C48.7051 23.1146 48.4068 23.3801 48.1188 23.6367C47.8855 23.8446 47.6647 24.0413 47.6647 24.3696V24.4542C47.6647 24.7751 47.9384 24.9821 48.3618 24.9821H52.6347C53.0613 24.9821 53.3597 24.7651 53.3597 24.4542V24.3696C53.3597 24.038 53.1151 23.8413 52.8563 23.6334Z" fill="#A454D4"/>
<path fill-rule="evenodd" clip-rule="evenodd" d="M52.8563 23.6334C52.5372 23.3767 52.2072 23.1113 52.2072 22.5426V4.67921C52.2072 4.43005 52.0997 4.21921 51.9122 4.10088C51.6888 3.96046 51.3801 3.97171 51.0413 4.1338L48.2018 5.53963C47.9501 5.66546 47.6647 5.80796 47.6647 6.14088V6.22546C47.6647 6.47088 47.8468 6.64546 48.0572 6.84755C48.3459 7.12421 48.7051 7.0588 48.7051 7.72713V22.5426C48.7051 23.1146 48.4068 23.3801 48.1188 23.6367C47.8855 23.8446 47.6647 24.0413 47.6647 24.3696V24.4542C47.6647 24.7751 47.9384 24.9821 48.3618 24.9821H52.6347C53.0613 24.9821 53.3597 24.7651 53.3597 24.4542V24.3696C53.3597 24.038 53.1151 23.8413 52.8563 23.6334Z" fill="#A454D4"/>
<path fill-rule="evenodd" clip-rule="evenodd" d="M52.8563 23.6334C52.5372 23.3767 52.2072 23.1113 52.2072 22.5426V4.67921C52.2072 4.43005 52.0997 4.21921 51.9122 4.10088C51.6888 3.96046 51.3801 3.97171 51.0413 4.1338L48.2018 5.53963C47.9501 5.66546 47.6647 5.80796 47.6647 6.14088V6.22546C47.6647 6.47088 47.8468 6.64546 48.0572 6.84755C48.3459 7.12421 48.7051 7.0588 48.7051 7.72713V22.5426C48.7051 23.1146 48.4068 23.3801 48.1188 23.6367C47.8855 23.8446 47.6647 24.0413 47.6647 24.3696V24.4542C47.6647 24.7751 47.9384 24.9821 48.3618 24.9821H52.6347C53.0613 24.9821 53.3597 24.7651 53.3597 24.4542V24.3696C53.3597 24.038 53.1151 23.8413 52.8563 23.6334Z" fill="#A454D4"/>
<path fill-rule="evenodd" clip-rule="evenodd" d="M59.2374 23.6334C58.9183 23.3767 58.5883 23.1113 58.5883 22.5425V4.67919C58.5883 4.43002 58.4808 4.21919 58.2933 4.10086C58.0699 3.96044 57.7612 3.97211 57.4224 4.13377L54.5824 5.53961C54.3308 5.66544 54.0458 5.80794 54.0458 6.14086V6.22544C54.0458 6.47086 54.2274 6.64544 54.4383 6.84753C54.727 7.12419 55.0862 7.05878 55.0862 7.72711V22.5425C55.0862 23.1146 54.7879 23.38 54.4999 23.6367C54.2662 23.8446 54.0458 24.0413 54.0458 24.3696V24.4542C54.0458 24.775 54.3195 24.9821 54.7429 24.9821H59.0158C59.4424 24.9821 59.7408 24.765 59.7408 24.4542V24.3696C59.7408 24.038 59.4962 23.8413 59.2374 23.6334Z" fill="#A454D4"/>
<path fill-rule="evenodd" clip-rule="evenodd" d="M59.2374 23.6334C58.9183 23.3767 58.5883 23.1113 58.5883 22.5425V4.67919C58.5883 4.43002 58.4808 4.21919 58.2933 4.10086C58.0699 3.96044 57.7612 3.97211 57.4224 4.13377L54.5824 5.53961C54.3308 5.66544 54.0458 5.80794 54.0458 6.14086V6.22544C54.0458 6.47086 54.2274 6.64544 54.4383 6.84753C54.727 7.12419 55.0862 7.05878 55.0862 7.72711V22.5425C55.0862 23.1146 54.7879 23.38 54.4999 23.6367C54.2662 23.8446 54.0458 24.0413 54.0458 24.3696V24.4542C54.0458 24.775 54.3195 24.9821 54.7429 24.9821H59.0158C59.4424 24.9821 59.7408 24.765 59.7408 24.4542V24.3696C59.7408 24.038 59.4962 23.8413 59.2374 23.6334Z" fill="#A454D4"/>
<path fill-rule="evenodd" clip-rule="evenodd" d="M59.2374 23.6334C58.9183 23.3767 58.5883 23.1113 58.5883 22.5425V4.67919C58.5883 4.43002 58.4808 4.21919 58.2933 4.10086C58.0699 3.96044 57.7612 3.97211 57.4224 4.13377L54.5824 5.53961C54.3308 5.66544 54.0458 5.80794 54.0458 6.14086V6.22544C54.0458 6.47086 54.2274 6.64544 54.4383 6.84753C54.727 7.12419 55.0862 7.05878 55.0862 7.72711V22.5425C55.0862 23.1146 54.7879 23.38 54.4999 23.6367C54.2662 23.8446 54.0458 24.0413 54.0458 24.3696V24.4542C54.0458 24.775 54.3195 24.9821 54.7429 24.9821H59.0158C59.4424 24.9821 59.7408 24.765 59.7408 24.4542V24.3696C59.7408 24.038 59.4962 23.8413 59.2374 23.6334Z" fill="#A454D4"/>
</g>
<path d="M69.6893 25.026H71.5093L79.6993 6.8H77.8533L69.6893 25.026ZM87.9188 6.514V9.426H90.3108V6.514H87.9188ZM88.1008 11.896V25.936C88.1008 27.678 87.9708 28.51 86.2808 28.51H85.2148V30.304H86.4108C89.2708 30.304 90.1808 28.77 90.1808 26.014V11.896H88.1008ZM98.1605 25.208C101.047 25.208 102.971 23.7 102.971 21.36C102.971 15.354 95.3005 18.864 95.3005 15.328C95.3005 14.184 96.3145 13.456 97.8485 13.456C99.0445 13.456 100.683 14.028 100.865 15.692H102.893C102.737 13.274 100.787 11.688 97.9005 11.688C95.1445 11.688 93.2725 13.144 93.2725 15.354C93.2725 21.022 100.891 17.512 100.891 21.412C100.891 22.478 99.7985 23.388 98.1605 23.388C96.2625 23.388 95.1185 22.478 94.9365 20.788H92.9345C93.1425 23.518 95.1185 25.208 98.1605 25.208Z" fill="white"/>
</g>
<defs>
<clipPath id="clip0">
<rect width="210" height="32" fill="white"/>
</clipPath>
<clipPath id="clip1">
<rect width="60" height="21.6667" fill="white" transform="translate(0 4)"/>
</clipPath>
</defs>
</svg>
